# xmcd
#
# Track frame offsets:
#	150
#	11901
#	24314
#	38151
#	50147
#	62591
#	74367
#	84952
#	97104
#	112985
#	123051
#
# Disc length: 1877 seconds
#
# Revision: 1
# Processed by: cddbd v1.5.2PL0 Copyright (c) Steve Scherf et al.
# Submitted via: EasyCDDAExtractor 12.0.4.1
#
DISCID=8a07530b
DTITLE=Willie Nelson - Run That By Me One More Time ( With Ray Price )
DYEAR=2003
DGENRE=Country
TTITLE0=Deep Water
TTITLE1=This Cold War With You
TTITLE2=I'm So Ashamed
TTITLE3=I've Just Destroyed The World I'm Living In
TTITLE4=It Wouldn't Be The Same Without You
TTITLE5=Home In San Antone
TTITLE6=Something To Think About
TTITLE7=Run That By Me One More Time
TTITLE8=Soft Rain
TTITLE9=I'll Keep On Lovin' You
TTITLE10=I'm Still Not Over You
EXTD=
EXTT0=
EXTT1=
EXTT2=
EXTT3=
EXTT4=
EXTT5=
EXTT6=
EXTT7=
EXTT8=
EXTT9=
EXTT10=
PLAYORDER=
